Coordinates
version=1
nRows=13
nColumns=40
inDegrees=yes

Units are S.I. units (second, meters, Newtons, ...)
Angles are in degrees.

endheader
time	pelvis_tilt	pelvis_list	pelvis_rotation	pelvis_tx	pelvis_ty	pelvis_tz	hip_flexion_r	hip_adduction_r	hip_rotation_r	knee_angle_r	knee_angle_r_beta	ankle_angle_r	subtalar_angle_r	mtp_angle_r	hip_flexion_l	hip_adduction_l	hip_rotation_l	knee_angle_l	knee_angle_l_beta	ankle_angle_l	subtalar_angle_l	mtp_angle_l	lumbar_extension	lumbar_bending	lumbar_rotation	arm_flex_r	arm_add_r	arm_rot_r	elbow_flex_r	pro_sup_r	wrist_flex_r	wrist_dev_r	arm_flex_l	arm_add_l	arm_rot_l	elbow_flex_l	pro_sup_l	wrist_flex_l	wrist_dev_l
     41.73500000	     -4.46816336	     -4.54994575	     10.99555748	      1.12109644	      0.92166620	      0.44953771	     -1.08489501	      0.39976390	    -16.31467655	     13.76129292	     13.76129292	     17.36287363	     -2.41233886	     -1.37459003	     26.81306381	     -4.64384647	      2.99095088	     24.13892860	     24.13892860	      5.70930113	     -9.91232468	     -2.02977917	     -7.15727508	      2.02922125	      4.40827234	     68.96222634	    -17.77193883	     -2.32725358	     77.18111169	     44.93332742	      0.00000000	      0.00000000	    -11.09742313	    -12.75632470	     20.79710366	     31.54813711	     43.49645622	      0.00000000	      0.00000000
     41.75628571	     -4.59267099	     -4.48160914	     10.42732698	      1.12159445	      0.92226099	      0.44547953	     -0.96936921	     -0.12487907	    -16.02802169	     14.35341109	     14.35341109	     17.16574445	     -2.17819101	     -1.27543409	     26.49091997	     -4.45530353	      2.72203783	     24.25506592	     24.25506592	      6.29584988	    -10.39314133	     -1.60799403	     -7.07788458	      1.89621947	      4.61739389	     68.22448084	    -17.68228130	     -2.29645669	     75.90651531	     44.98082677	      0.00000000	      0.00000000	     -9.90236925	    -13.03144658	     20.27058558	     31.63207939	     43.62642160	      0.00000000	      0.00000000
     41.77757143	     -4.64289008	     -4.56211848	      9.90450274	      1.12200427	      0.92299732	      0.44152128	     -1.06092033	     -0.40392604	    -15.72140595	     14.58960185	     14.58960185	     16.79411337	     -1.95645819	     -1.18432752	     26.13556206	     -4.45822898	      2.40044328	     24.35167378	     24.35167378	      6.72497131	    -10.69479184	     -1.67511865	     -7.15307640	      2.01104679	      4.48260355	     67.21709192	    -17.22250644	     -2.07219605	     75.50748612	     44.98308153	      0.00000000	      0.00000000	     -8.77105450	    -13.33888599	     20.10539330	     31.87750109	     43.67000602	      0.00000000	      0.00000000
     41.79885714	     -4.76658204	     -4.48364702	      9.33200652	      1.12230442	      0.92377076	      0.43756167	     -0.94069913	     -0.93338199	    -15.45131820	     15.11361044	     15.11361044	     16.52559153	     -1.67378780	     -1.06799478	     25.68165939	     -4.30716077	      1.89231154	     24.18747520	     24.18747520	      7.14752567	    -10.82399995	     -1.54519535	     -7.08834998	      1.89328886	      4.53074635	     65.89060232	    -17.07724630	     -2.07218800	     74.22135491	     45.02520239	      0.00000000	      0.00000000	     -7.53159967	    -13.55343880	     19.71494671	     31.91074850	     43.76482837	      0.00000000	      0.00000000
     41.82014286	     -4.80517281	     -4.64243118	      8.82448751	      1.12241891	      0.92454428	      0.43371915	     -0.96370207	     -1.13858093	    -15.19153141	     15.40633538	     15.40633538	     16.11889680	     -1.42314567	     -0.97812843	     25.31070164	     -4.38912987	      1.55642439	     24.19341208	     24.19341208	      7.48236101	    -11.05735301	     -1.58804427	     -7.22519576	      2.13013912	      4.29502638	     64.58768226	    -16.62147933	     -1.86536967	     73.66865416	     45.03154845	      0.00000000	      0.00000000	     -6.24062674	    -13.76309188	     19.55656745	     32.18994294	     43.80943418	      0.00000000	      0.00000000
     41.84142857	     -4.95533175	     -4.57154273	      8.25497824	      1.12255378	      0.92531484	      0.42976975	     -0.68442456	     -1.72646175	    -15.06841462	     16.14591333	     16.14591333	     15.91203665	     -0.98021213	     -0.88676516	     24.84037126	     -4.25662105	      0.93481147	     23.90536396	     23.90536396	      7.82353429	    -10.95743990	     -1.50349389	     -7.08109336	      2.06137318	      4.45850227	     62.84933667	    -16.58443898	     -2.12174136	     71.64000955	     45.10644107	      0.00000000	      0.00000000	     -4.66253629	    -13.81157898	     19.06971842	     31.93482067	     43.92947725	      0.00000000	      0.00000000
     41.86271429	     -4.98099836	     -4.70723187	      7.74663233	      1.12262716	      0.92610172	      0.42588667	     -0.50744687	     -2.05733852	    -15.01007327	     16.86272328	     16.86272328	     15.66737494	     -0.51658442	     -0.63749070	     24.43572585	     -4.32690553	      0.49247249	     23.88275371	     23.88275371	      8.25994142	    -10.93674272	     -1.28418016	     -7.07509884	      2.29699338	      4.10241297	     61.33186065	    -15.65958197	     -2.70711120	     69.01651946	     45.22364994	      0.00000000	      0.00000000	     -2.87011656	    -13.41960324	     17.85426464	     30.44619212	     44.22384261	      0.00000000	      0.00000000
     41.88400000	     -4.97502391	     -4.81003134	      7.23577867	      1.12269814	      0.92689455	      0.42201537	     -0.16754159	     -2.43924900	    -14.78189114	     17.93259400	     17.93259400	     15.25554091	     -0.55535705	     -0.83342790	     23.95387466	     -4.36350929	      0.03210626	     23.77613501	     23.77613501	      8.53698657	    -10.98528535	     -1.32395392	     -7.17802143	      2.49074418	      3.92746736	     59.05284266	    -15.47234874	     -2.59396360	     67.85624207	     45.25030313	      0.00000000	      0.00000000	     -1.42159108	    -13.52792914	     17.58274718	     30.79925743	     44.29655021	      0.00000000	      0.00000000
     41.90528571	     -5.00022169	     -4.91662397	      6.70936826	      1.12256959	      0.92748544	      0.41824143	      0.61105070	     -2.91720272	    -14.50507397	     19.74082947	     19.74082947	     14.77795139	     -0.90509364	     -1.48627325	     23.56919016	     -4.40650546	     -0.43377634	     23.75695867	     23.75695867	      8.84346215	    -10.99534263	     -1.37077549	     -7.25544273	      2.70611399	      3.97365677	     56.73033387	    -15.38539809	     -2.67491838	     66.09618933	     45.30469227	      0.00000000	      0.00000000	      0.36945742	    -13.50433098	     17.27805881	     30.97678639	     44.38468973	      0.00000000	      0.00000000
     41.92657143	     -4.91566026	     -5.02828552	      6.21167289	      1.12249455	      0.92804798	      0.41448717	      1.59157820	     -3.42287062	    -14.12060449	     22.14871065	     22.14871065	     14.13912702	     -1.71566703	     -2.45824378	     23.13147959	     -4.45180882	     -0.83959027	     23.85669717	     23.85669717	      9.20283084	    -11.08390946	     -1.41311356	     -7.41791916	      2.94446251	      3.87479039	     54.16931627	    -15.17463035	     -2.75838491	     64.18778650	     45.36251598	      0.00000000	      0.00000000	      2.14135649	    -13.45123491	     17.05341115	     31.05048668	     44.45844340	      0.00000000	      0.00000000
     41.94785714	     -4.78010913	     -5.20636531	      5.73898391	      1.12232235	      0.92843185	      0.41084853	      2.79732319	     -3.74694992	    -13.21523312	     24.86817968	     24.86817968	     12.02573188	     -4.21334850	     -6.81699118	     22.76736843	     -4.55815846	     -1.14646794	     24.16536882	     24.16536882	      9.80455251	    -11.19821690	     -0.94376461	     -7.51186321	      3.31706823	      3.74573424	     52.10677188	    -14.35767179	     -3.87201164	     60.00451891	     45.54056801	      0.00000000	      0.00000000	      4.57378897	    -12.93823817	     16.55900858	     29.29976888	     44.64031436	      0.00000000	      0.00000000
     41.96914286	     -4.59239125	     -5.17465986	      5.29161117	      1.12214701	      0.92849450	      0.40710163	      4.60105857	     -4.55151851	    -12.66195497	     29.04168940	     29.04168940	     11.13350696	     -5.81588492	     -7.99137297	     22.36639275	     -4.43560746	     -1.50056109	     24.54028355	     24.54028355	     10.23150440	    -11.43652204	     -1.08245027	     -7.78975195	      3.45317727	      3.55375656	     49.08403105	    -14.14017998	     -3.75881390	     58.38416067	     45.57701797	      0.00000000	      0.00000000	      6.31601256	    -12.98594450	     16.35779416	     29.90967962	     44.70513782	      0.00000000	      0.00000000
     41.99042857	     -4.44539109	     -5.30746635	      4.84502540	      1.12187652	      0.92814954	      0.40365397	      6.74354216	     -4.87063465	    -11.22068737	     33.46889778	     33.46889778	      8.98308184	     -9.57313065	    -10.71548930	     22.16630475	     -4.44134472	     -1.57650578	     25.15082452	     25.15082452	     10.79920724	    -12.01354305	     -0.78270289	     -7.85313049	      3.79485227	      3.67184640	     46.21287774	    -13.96149012	     -4.22106031	     54.98894343	     45.69680874	      0.00000000	      0.00000000	      8.46354744	    -12.71254361	     16.17605968	     29.94934765	     44.79779567	      0.00000000	      0.00000000
